<svg xmlns="http://www.w3.org/2000/svg" xmlns:xlink="http://www.w3.org/1999/xlink" width="500" zoomAndPan="magnify" viewBox="0 0 375 374.999991" height="500" preserveAspectRatio="xMidYMid meet" version="1.2"><defs><clipPath id="64c42e61d5"><path d="M 213.410156 93.832031 L 294 93.832031 L 294 259.582031 L 213.410156 259.582031 Z M 213.410156 93.832031 "/></clipPath><clipPath id="9c954b57af"><rect x="0" width="339" y="0" height="107"/></clipPath></defs><g id="564024243f"><g clip-rule="nonzero" clip-path="url(#64c42e61d5)"><path style=" stroke:none;fill-rule:nonzero;fill:#000000;fill-opacity:1;" d="M 291.363281 165.015625 L 266.246094 165.015625 L 261.90625 141.980469 C 265.320312 139.355469 267.5625 135.273438 267.5625 130.640625 C 267.5625 123.480469 262.289062 117.582031 255.4375 116.503906 L 255.4375 96.09375 C 255.4375 94.863281 254.433594 93.863281 253.203125 93.863281 C 251.96875 93.863281 250.96875 94.863281 250.96875 96.09375 L 250.96875 116.503906 C 244.117188 117.582031 238.84375 123.480469 238.84375 130.640625 C 238.84375 135.65625 241.4375 140.0625 245.347656 142.632812 L 240.988281 165.015625 L 216.085938 165.015625 C 214.855469 165.015625 213.851562 166.015625 213.851562 167.246094 C 213.851562 168.480469 214.855469 169.480469 216.085938 169.480469 L 240.121094 169.480469 L 222.78125 258.535156 L 246.179688 169.480469 L 261.820312 169.480469 L 284.066406 259.632812 L 267.082031 169.480469 L 291.359375 169.480469 C 292.59375 169.480469 293.59375 168.480469 293.59375 167.246094 C 293.59375 166.015625 292.597656 165.015625 291.363281 165.015625 Z M 253.203125 120.746094 C 258.660156 120.746094 263.097656 125.1875 263.097656 130.644531 C 263.097656 136.097656 258.660156 140.535156 253.203125 140.535156 C 247.746094 140.535156 243.308594 136.097656 243.308594 130.644531 C 243.308594 125.1875 247.746094 120.746094 253.203125 120.746094 Z M 247.359375 165.015625 L 252.632812 144.941406 C 252.824219 144.945312 253.007812 145 253.203125 145 C 254.066406 145 254.898438 144.894531 255.722656 144.746094 L 260.722656 165.019531 L 247.359375 165.019531 Z M 247.359375 165.015625 "/></g><g transform="matrix(1,0,0,1,18,145)"><g clip-path="url(#9c954b57af)"><g style="fill:#000000;fill-opacity:1;"><g transform="translate(1.599613, 83.19916)"><path style="stroke:none" d="M 5.421875 -16 C 5.484375 -13.46875 6.128906 -11.144531 7.359375 -9.03125 C 8.597656 -6.925781 10.253906 -5.117188 12.328125 -3.609375 C 14.410156 -2.109375 16.851562 -0.953125 19.65625 -0.140625 C 22.46875 0.671875 25.5 1.078125 28.75 1.078125 C 35.976562 1.078125 41.65625 -0.515625 45.78125 -3.703125 C 49.914062 -6.898438 51.984375 -11.390625 51.984375 -17.171875 C 51.984375 -21.085938 51.046875 -24.296875 49.171875 -26.796875 C 47.304688 -29.304688 44.972656 -31.375 42.171875 -33 C 39.367188 -34.625 36.320312 -35.960938 33.03125 -37.015625 C 29.75 -38.078125 26.707031 -39.175781 23.90625 -40.3125 C 21.101562 -41.457031 18.769531 -42.769531 16.90625 -44.25 C 15.039062 -45.726562 14.109375 -47.703125 14.109375 -50.171875 C 14.109375 -51.503906 14.421875 -52.785156 15.046875 -54.015625 C 15.679688 -55.253906 16.613281 -56.335938 17.84375 -57.265625 C 19.082031 -58.203125 20.617188 -58.957031 22.453125 -59.53125 C 24.296875 -60.101562 26.394531 -60.390625 28.75 -60.390625 C 32.601562 -60.390625 35.691406 -59.5625 38.015625 -57.90625 C 40.335938 -56.25 41.738281 -53.640625 42.21875 -50.078125 L 49.359375 -50.078125 C 48.992188 -52.429688 48.164062 -54.492188 46.875 -56.265625 C 45.582031 -58.046875 43.984375 -59.539062 42.078125 -60.75 C 40.179688 -61.957031 38.054688 -62.863281 35.703125 -63.46875 C 33.359375 -64.070312 30.976562 -64.375 28.5625 -64.375 C 25.613281 -64.375 22.859375 -64.007812 20.296875 -63.28125 C 17.734375 -62.5625 15.503906 -61.492188 13.609375 -60.078125 C 11.710938 -58.660156 10.21875 -56.894531 9.125 -54.78125 C 8.039062 -52.675781 7.5 -50.238281 7.5 -47.46875 C 7.5 -43.488281 8.398438 -40.289062 10.203125 -37.875 C 12.015625 -35.46875 14.289062 -33.523438 17.03125 -32.046875 C 19.78125 -30.566406 22.75 -29.34375 25.9375 -28.375 C 29.132812 -27.414062 32.101562 -26.394531 34.84375 -25.3125 C 37.59375 -24.226562 39.867188 -22.882812 41.671875 -21.28125 C 43.484375 -19.6875 44.390625 -17.503906 44.390625 -14.734375 C 44.390625 -12.566406 44.007812 -10.742188 43.25 -9.265625 C 42.5 -7.785156 41.445312 -6.5625 40.09375 -5.59375 C 38.738281 -4.632812 37.097656 -3.941406 35.171875 -3.515625 C 33.242188 -3.097656 31.132812 -2.890625 28.84375 -2.890625 C 25.882812 -2.890625 23.410156 -3.382812 21.421875 -4.375 C 19.429688 -5.375 17.816406 -6.566406 16.578125 -7.953125 C 15.347656 -9.335938 14.460938 -10.769531 13.921875 -12.25 C 13.378906 -13.726562 13.078125 -14.976562 13.015625 -16 Z M 33.546875 4.4375 L 25.046875 4.4375 L 25.046875 19.890625 L 28.109375 19.890625 Z M 33.546875 4.4375 "/></g></g><g style="fill:#000000;fill-opacity:1;"><g transform="translate(58.105928, 83.19916)"><path style="stroke:none" d="M 14.46875 -63.28125 L 14.46875 0 L 22.6875 0 L 22.6875 -63.28125 Z M 14.46875 -63.28125 "/></g></g><g style="fill:#000000;fill-opacity:1;"><g transform="translate(95.264477, 83.19916)"><path style="stroke:none" d="M 17 -63.28125 L 10.84375 -63.28125 L 10.84375 0 L 14.828125 0 L 14.828125 -51.625 L 15.1875 -51.625 L 43.125 1.078125 L 44.75 1.078125 L 73.3125 -51.265625 L 73.6875 -51.265625 L 73.6875 0 L 81.90625 0 L 81.90625 -63.28125 L 75.671875 -63.28125 L 46.375 -8.953125 L 46.015625 -8.953125 Z M 17 -63.28125 "/></g></g><g style="fill:#000000;fill-opacity:1;"><g transform="translate(188.030269, 83.19916)"><path style="stroke:none" d=""/></g></g><g style="fill:#000000;fill-opacity:1;"><g transform="translate(219.67381, 83.19916)"><path style="stroke:none" d=""/></g></g><g style="fill:#000000;fill-opacity:1;"><g transform="translate(251.317352, 83.19916)"><path style="stroke:none" d=""/></g></g><g style="fill:#000000;fill-opacity:1;"><g transform="translate(282.966782, 83.19916)"><path style="stroke:none" d="M 10.84375 0 L 10.84375 -63.28125 L 19.078125 -63.28125 L 19.078125 -4.96875 L 51.71875 -4.96875 L 51.71875 0 Z M 10.84375 0 "/></g></g></g></g><g style="fill:#000000;fill-opacity:1;"><g transform="translate(85.003032, 158.597378)"><path style="stroke:none" d="M 5.78125 -3.109375 C 5.78125 -4.171875 6.164062 -5.085938 6.9375 -5.859375 C 7.707031 -6.628906 8.625 -7.015625 9.6875 -7.015625 C 10.75 -7.015625 11.664062 -6.628906 12.4375 -5.859375 C 13.207031 -5.085938 13.59375 -4.171875 13.59375 -3.109375 C 13.59375 -2.046875 13.207031 -1.128906 12.4375 -0.359375 C 11.664062 0.410156 10.75 0.796875 9.6875 0.796875 C 8.625 0.796875 7.707031 0.410156 6.9375 -0.359375 C 6.164062 -1.128906 5.78125 -2.046875 5.78125 -3.109375 Z M 5.78125 -3.109375 "/></g></g></g></svg>